<svg width="212" height="124" viewBox="0 0 212 124" fill="none" xmlns="http://www.w3.org/2000/svg">
<rect width="212" height="124" fill="#42B3FF"/>
<path d="M52.64 82.432C49.904 82.432 47.624 81.496 45.8 79.624C43.976 77.752 43.064 74.824 43.064 70.84C43.064 67.288 43.76 63.568 45.152 59.68C46.592 55.744 48.704 52.432 51.488 49.744C54.32 47.008 57.68 45.64 61.568 45.64C63.536 45.64 65 45.976 65.96 46.648C66.92 47.32 67.4 48.208 67.4 49.312V49.6L70.928 33.04L81.584 31.6L73.304 70.48C73.112 71.2 73.016 71.968 73.016 72.784C73.016 73.744 73.232 74.44 73.664 74.872C74.144 75.256 74.912 75.448 75.968 75.448C77.312 75.448 78.464 74.872 79.424 73.72C80.432 72.568 81.224 71.032 81.8 69.112H84.824C81.896 77.704 77.072 82 70.352 82C68.384 82 66.776 81.472 65.528 80.416C64.328 79.36 63.584 77.824 63.296 75.808C62.048 77.728 60.536 79.312 58.76 80.56C57.032 81.808 54.992 82.432 52.64 82.432ZM57.32 75.448C58.472 75.448 59.624 74.92 60.776 73.864C61.976 72.808 62.792 71.344 63.224 69.472V69.112L66.752 52.624C66.32 50.944 65.336 50.104 63.8 50.104C61.88 50.104 60.152 51.232 58.616 53.488C57.08 55.696 55.88 58.384 55.016 61.552C54.152 64.672 53.72 67.432 53.72 69.832C53.72 72.232 54.056 73.768 54.728 74.44C55.448 75.112 56.312 75.448 57.32 75.448ZM86.7241 46H97.0921L96.1561 50.464C97.7881 49.024 99.2521 47.92 100.548 47.152C101.892 46.384 103.332 46 104.868 46C106.404 46 107.604 46.528 108.468 47.584C109.38 48.64 109.836 49.912 109.836 51.4C109.836 52.792 109.38 54.016 108.468 55.072C107.556 56.128 106.284 56.656 104.652 56.656C103.596 56.656 102.876 56.416 102.492 55.936C102.156 55.408 101.892 54.664 101.7 53.704C101.556 53.08 101.412 52.624 101.268 52.336C101.124 52.048 100.86 51.904 100.476 51.904C99.4681 51.904 98.6041 52.12 97.8841 52.552C97.2121 52.936 96.3241 53.632 95.2201 54.64L89.4601 82H79.0921L86.7241 46ZM120.922 42.112C119.338 42.112 117.994 41.56 116.89 40.456C115.786 39.352 115.234 38.008 115.234 36.424C115.234 34.84 115.786 33.496 116.89 32.392C117.994 31.24 119.338 30.664 120.922 30.664C122.506 30.664 123.85 31.24 124.954 32.392C126.106 33.496 126.682 34.84 126.682 36.424C126.682 38.008 126.106 39.352 124.954 40.456C123.85 41.56 122.506 42.112 120.922 42.112ZM116.026 82.432C113.722 82.432 111.85 81.712 110.41 80.272C109.018 78.832 108.322 76.672 108.322 73.792C108.322 72.592 108.514 71.032 108.898 69.112L113.794 46H124.162L118.978 70.48C118.786 71.2 118.69 71.968 118.69 72.784C118.69 73.744 118.906 74.44 119.338 74.872C119.818 75.256 120.586 75.448 121.642 75.448C123.034 75.448 124.33 74.872 125.53 73.72C126.73 72.52 127.594 70.984 128.122 69.112H131.146C129.37 74.296 127.09 77.824 124.306 79.696C121.522 81.52 118.762 82.432 116.026 82.432ZM121.542 100C119.286 100 117.318 99.256 115.638 97.768C113.91 96.328 113.046 94.48 113.046 92.224C113.046 90.16 113.574 88.456 114.63 87.112C115.686 85.768 117.078 84.688 118.806 83.872C120.486 83.104 122.718 82.288 125.502 81.424L134.142 40.312C135.102 35.704 136.782 32.512 139.182 30.736C141.63 28.96 144.318 28.072 147.246 28.072C150.174 28.072 153.006 28.48 155.742 29.296C158.526 30.112 162.054 31.36 166.326 33.04L163.59 46H167.91L167.334 48.88H162.942L158.406 70.48C158.214 71.2 158.118 71.968 158.118 72.784C158.118 73.744 158.334 74.44 158.766 74.872C159.246 75.256 160.014 75.448 161.07 75.448C162.462 75.448 163.758 74.872 164.958 73.72C166.158 72.52 167.022 70.984 167.55 69.112H170.574C168.798 74.296 166.518 77.824 163.734 79.696C160.95 81.52 158.19 82.432 155.454 82.432C153.15 82.432 151.278 81.712 149.838 80.272C148.446 78.832 147.75 76.672 147.75 73.792C147.75 72.592 147.942 71.032 148.326 69.112L152.574 48.88H142.854L134.646 87.76C133.686 92.368 131.982 95.56 129.534 97.336C127.134 99.112 124.47 100 121.542 100ZM153.222 46L155.814 33.76C154.95 33.424 153.894 33.16 152.646 32.968C151.446 32.728 150.534 32.608 149.91 32.608C148.902 32.608 147.942 33.016 147.03 33.832C146.118 34.648 145.446 36.136 145.014 38.296L143.43 46H153.222ZM119.886 93.592C120.75 93.592 121.566 93.136 122.334 92.224C123.102 91.36 123.702 89.944 124.134 87.976L124.998 83.8C122.454 84.664 120.486 85.648 119.094 86.752C117.702 87.904 117.006 89.392 117.006 91.216C117.006 91.792 117.294 92.32 117.87 92.8C118.446 93.328 119.118 93.592 119.886 93.592Z" fill="white"/>
</svg>
