<svg width="413" height="455" viewBox="-50 -50 513 555" fill="none" xmlns="http://www.w3.org/2000/svg">
<path d="M6.752 392.392V437H0.928V392.392H6.752ZM58.854 401.288C61.5847 401.288 64.0167 401.864 66.15 403.016C68.2833 404.125 69.9687 405.811 71.206 408.072C72.4433 410.333 73.062 413.085 73.062 416.328V437H67.302V417.16C67.302 413.661 66.4273 410.995 64.678 409.16C62.9713 407.283 60.646 406.344 57.702 406.344C54.6727 406.344 52.262 407.325 50.47 409.288C48.678 411.208 47.782 414.003 47.782 417.672V437H42.022V417.16C42.022 413.661 41.1473 410.995 39.398 409.16C37.6913 407.283 35.366 406.344 32.422 406.344C29.3927 406.344 26.982 407.325 25.19 409.288C23.398 411.208 22.502 414.003 22.502 417.672V437H16.678V401.928H22.502V406.984C23.654 405.149 25.19 403.741 27.11 402.76C29.0727 401.779 31.2273 401.288 33.574 401.288C36.518 401.288 39.1207 401.949 41.382 403.272C43.6433 404.595 45.3287 406.536 46.438 409.096C47.4193 406.621 49.0407 404.701 51.302 403.336C53.5633 401.971 56.0807 401.288 58.854 401.288ZM80.4395 419.336C80.4395 415.752 81.1648 412.616 82.6155 409.928C84.0662 407.197 86.0502 405.085 88.5675 403.592C91.1275 402.099 93.9648 401.352 97.0795 401.352C100.152 401.352 102.818 402.013 105.08 403.336C107.341 404.659 109.026 406.323 110.136 408.328V401.928H116.024V437H110.136V430.472C108.984 432.52 107.256 434.227 104.952 435.592C102.69 436.915 100.045 437.576 97.0155 437.576C93.9008 437.576 91.0848 436.808 88.5675 435.272C86.0502 433.736 84.0662 431.581 82.6155 428.808C81.1648 426.035 80.4395 422.877 80.4395 419.336ZM110.136 419.4C110.136 416.755 109.602 414.451 108.536 412.488C107.469 410.525 106.018 409.032 104.184 408.008C102.392 406.941 100.408 406.408 98.2315 406.408C96.0555 406.408 94.0715 406.92 92.2795 407.944C90.4875 408.968 89.0582 410.461 87.9915 412.424C86.9248 414.387 86.3915 416.691 86.3915 419.336C86.3915 422.024 86.9248 424.371 87.9915 426.376C89.0582 428.339 90.4875 429.853 92.2795 430.92C94.0715 431.944 96.0555 432.456 98.2315 432.456C100.408 432.456 102.392 431.944 104.184 430.92C106.018 429.853 107.469 428.339 108.536 426.376C109.602 424.371 110.136 422.045 110.136 419.4ZM140.33 401.352C143.359 401.352 146.004 402.013 148.266 403.336C150.57 404.659 152.276 406.323 153.386 408.328V401.928H159.274V437.768C159.274 440.968 158.591 443.805 157.226 446.28C155.86 448.797 153.898 450.76 151.338 452.168C148.82 453.576 145.876 454.28 142.506 454.28C137.898 454.28 134.058 453.192 130.986 451.016C127.914 448.84 126.1 445.875 125.546 442.12H131.306C131.946 444.253 133.268 445.96 135.274 447.24C137.279 448.563 139.69 449.224 142.506 449.224C145.706 449.224 148.308 448.221 150.314 446.216C152.362 444.211 153.386 441.395 153.386 437.768V430.408C152.234 432.456 150.527 434.163 148.266 435.528C146.004 436.893 143.359 437.576 140.33 437.576C137.215 437.576 134.378 436.808 131.818 435.272C129.3 433.736 127.316 431.581 125.866 428.808C124.415 426.035 123.69 422.877 123.69 419.336C123.69 415.752 124.415 412.616 125.866 409.928C127.316 407.197 129.3 405.085 131.818 403.592C134.378 402.099 137.215 401.352 140.33 401.352ZM153.386 419.4C153.386 416.755 152.852 414.451 151.786 412.488C150.719 410.525 149.268 409.032 147.434 408.008C145.642 406.941 143.658 406.408 141.482 406.408C139.306 406.408 137.322 406.92 135.53 407.944C133.738 408.968 132.308 410.461 131.242 412.424C130.175 414.387 129.642 416.691 129.642 419.336C129.642 422.024 130.175 424.371 131.242 426.376C132.308 428.339 133.738 429.853 135.53 430.92C137.322 431.944 139.306 432.456 141.482 432.456C143.658 432.456 145.642 431.944 147.434 430.92C149.268 429.853 150.719 428.339 151.786 426.376C152.852 424.371 153.386 422.045 153.386 419.4ZM201.116 418.12C201.116 419.229 201.052 420.403 200.924 421.64H172.892C173.105 425.096 174.278 427.805 176.412 429.768C178.588 431.688 181.212 432.648 184.284 432.648C186.801 432.648 188.892 432.072 190.556 430.92C192.262 429.725 193.457 428.147 194.14 426.184H200.412C199.473 429.555 197.596 432.307 194.78 434.44C191.964 436.531 188.465 437.576 184.284 437.576C180.956 437.576 177.969 436.829 175.324 435.336C172.721 433.843 170.673 431.731 169.18 429C167.686 426.227 166.94 423.027 166.94 419.4C166.94 415.773 167.665 412.595 169.116 409.864C170.566 407.133 172.593 405.043 175.196 403.592C177.841 402.099 180.87 401.352 184.284 401.352C187.612 401.352 190.556 402.077 193.116 403.528C195.676 404.979 197.638 406.984 199.004 409.544C200.412 412.061 201.116 414.92 201.116 418.12ZM195.1 416.904C195.1 414.685 194.609 412.787 193.628 411.208C192.646 409.587 191.302 408.371 189.596 407.56C187.932 406.707 186.076 406.28 184.028 406.28C181.084 406.28 178.566 407.219 176.476 409.096C174.428 410.973 173.254 413.576 172.956 416.904H195.1Z" fill="#009BFF"/>
<path d="M229.027 437.448C224.888 437.448 221.112 436.488 217.699 434.568C214.286 432.605 211.576 429.896 209.571 426.44C207.608 422.941 206.627 419.016 206.627 414.664C206.627 410.312 207.608 406.408 209.571 402.952C211.576 399.453 214.286 396.744 217.699 394.824C221.112 392.861 224.888 391.88 229.027 391.88C233.208 391.88 237.006 392.861 240.419 394.824C243.832 396.744 246.52 399.432 248.483 402.888C250.446 406.344 251.427 410.269 251.427 414.664C251.427 419.059 250.446 422.984 248.483 426.44C246.52 429.896 243.832 432.605 240.419 434.568C237.006 436.488 233.208 437.448 229.027 437.448ZM229.027 432.392C232.142 432.392 234.936 431.667 237.411 430.216C239.928 428.765 241.891 426.696 243.299 424.008C244.75 421.32 245.475 418.205 245.475 414.664C245.475 411.08 244.75 407.965 243.299 405.32C241.891 402.632 239.95 400.563 237.475 399.112C235 397.661 232.184 396.936 229.027 396.936C225.87 396.936 223.054 397.661 220.579 399.112C218.104 400.563 216.142 402.632 214.691 405.32C213.283 407.965 212.579 411.08 212.579 414.664C212.579 418.205 213.283 421.32 214.691 424.008C216.142 426.696 218.104 428.765 220.579 430.216C223.096 431.667 225.912 432.392 229.027 432.392ZM256.94 419.4C256.94 415.773 257.665 412.616 259.116 409.928C260.566 407.197 262.572 405.085 265.132 403.592C267.734 402.099 270.7 401.352 274.028 401.352C278.337 401.352 281.878 402.397 284.652 404.488C287.468 406.579 289.324 409.48 290.22 413.192H283.948C283.35 411.059 282.177 409.373 280.428 408.136C278.721 406.899 276.588 406.28 274.028 406.28C270.7 406.28 268.012 407.432 265.964 409.736C263.916 411.997 262.892 415.219 262.892 419.4C262.892 423.624 263.916 426.888 265.964 429.192C268.012 431.496 270.7 432.648 274.028 432.648C276.588 432.648 278.721 432.051 280.428 430.856C282.134 429.661 283.308 427.955 283.948 425.736H290.22C289.281 429.32 287.404 432.2 284.588 434.376C281.772 436.509 278.252 437.576 274.028 437.576C270.7 437.576 267.734 436.829 265.132 435.336C262.572 433.843 260.566 431.731 259.116 429C257.665 426.269 256.94 423.069 256.94 419.4ZM329.991 418.12C329.991 419.229 329.927 420.403 329.799 421.64H301.767C301.98 425.096 303.153 427.805 305.287 429.768C307.463 431.688 310.087 432.648 313.159 432.648C315.676 432.648 317.767 432.072 319.431 430.92C321.137 429.725 322.332 428.147 323.015 426.184H329.287C328.348 429.555 326.471 432.307 323.655 434.44C320.839 436.531 317.34 437.576 313.159 437.576C309.831 437.576 306.844 436.829 304.199 435.336C301.596 433.843 299.548 431.731 298.055 429C296.561 426.227 295.815 423.027 295.815 419.4C295.815 415.773 296.54 412.595 297.991 409.864C299.441 407.133 301.468 405.043 304.071 403.592C306.716 402.099 309.745 401.352 313.159 401.352C316.487 401.352 319.431 402.077 321.991 403.528C324.551 404.979 326.513 406.984 327.879 409.544C329.287 412.061 329.991 414.92 329.991 418.12ZM323.975 416.904C323.975 414.685 323.484 412.787 322.503 411.208C321.521 409.587 320.177 408.371 318.471 407.56C316.807 406.707 314.951 406.28 312.903 406.28C309.959 406.28 307.441 407.219 305.351 409.096C303.303 410.973 302.129 413.576 301.831 416.904H323.975ZM335.502 419.336C335.502 415.752 336.227 412.616 337.678 409.928C339.129 407.197 341.113 405.085 343.63 403.592C346.19 402.099 349.027 401.352 352.142 401.352C355.214 401.352 357.881 402.013 360.142 403.336C362.403 404.659 364.089 406.323 365.198 408.328V401.928H371.086V437H365.198V430.472C364.046 432.52 362.318 434.227 360.014 435.592C357.753 436.915 355.107 437.576 352.078 437.576C348.963 437.576 346.147 436.808 343.63 435.272C341.113 433.736 339.129 431.581 337.678 428.808C336.227 426.035 335.502 422.877 335.502 419.336ZM365.198 419.4C365.198 416.755 364.665 414.451 363.598 412.488C362.531 410.525 361.081 409.032 359.246 408.008C357.454 406.941 355.47 406.408 353.294 406.408C351.118 406.408 349.134 406.92 347.342 407.944C345.55 408.968 344.121 410.461 343.054 412.424C341.987 414.387 341.454 416.691 341.454 419.336C341.454 422.024 341.987 424.371 343.054 426.376C344.121 428.339 345.55 429.853 347.342 430.92C349.134 431.944 351.118 432.456 353.294 432.456C355.47 432.456 357.454 431.944 359.246 430.92C361.081 429.853 362.531 428.339 363.598 426.376C364.665 424.371 365.198 422.045 365.198 419.4ZM398.016 401.288C402.283 401.288 405.739 402.589 408.384 405.192C411.029 407.752 412.352 411.464 412.352 416.328V437H406.592V417.16C406.592 413.661 405.717 410.995 403.968 409.16C402.219 407.283 399.829 406.344 396.8 406.344C393.728 406.344 391.275 407.304 389.44 409.224C387.648 411.144 386.752 413.939 386.752 417.608V437H380.928V401.928H386.752V406.92C387.904 405.128 389.461 403.741 391.424 402.76C393.429 401.779 395.627 401.288 398.016 401.288Z" fill="#0071BA"/>
<circle cx="206.5" cy="183.5" r="133.5" stroke="#0071BA" stroke-width="100"/>
</svg>
