<?xml version="1.0" encoding="UTF-8"?>
<svg xmlns="http://www.w3.org/2000/svg" xmlns:xlink="http://www.w3.org/1999/xlink" width="150pt" height="120pt" viewBox="0 0 150 140" version="1.1">
<defs>
<linearGradient id="linear0" gradientUnits="userSpaceOnUse" x1="176.0253" y1="1317.2996" x2="1588.13" y2="1317.2996" gradientTransform="matrix(0.06,0,0,-0.06,0,150)">
<stop offset="0" style="stop-color:rgb(40%,17.647059%,56.862745%);stop-opacity:1;"/>
<stop offset="1" style="stop-color:rgb(57.647059%,42.352941%,56.078431%);stop-opacity:1;"/>
</linearGradient>
</defs>
<g id="surface1">
<path style=" stroke:none;fill-rule:nonzero;fill:rgb(56.470588%,40.784314%,56.078431%);fill-opacity:1;" d="M 138.367188 97.273438 C 138.558594 97.476562 138.695312 97.714844 138.859375 97.945312 C 139.890625 99.394531 140.921875 100.847656 141.949219 102.304688 C 142.015625 102.394531 142.074219 102.492188 142.132812 102.582031 L 142.132812 102.640625 C 141.828125 102.941406 141.964844 102.910156 141.496094 102.910156 C 138.589844 102.917969 135.683594 102.925781 132.773438 102.929688 C 132.652344 102.929688 132.527344 102.953125 132.40625 102.898438 C 132.496094 102.792969 132.625 102.796875 132.742188 102.796875 C 133.3125 102.796875 133.882812 102.785156 134.460938 102.804688 C 135.558594 102.785156 136.65625 102.804688 137.753906 102.796875 C 138.257812 102.796875 138.257812 102.796875 138.257812 102.28125 C 138.257812 100.78125 138.257812 99.28125 138.257812 97.78125 C 138.277344 97.601562 138.238281 97.421875 138.367188 97.273438 Z M 138.367188 97.273438 "/>
<path style=" stroke:none;fill-rule:nonzero;fill:rgb(60.392157%,45.490196%,67.45098%);fill-opacity:1;" d="M 72.863281 59.800781 C 72.863281 59.824219 72.859375 59.84375 72.859375 59.867188 C 72.652344 60 72.394531 60 72.191406 59.867188 L 72.1875 59.800781 Z M 72.863281 59.800781 "/>
<path style=" stroke:none;fill-rule:nonzero;fill:rgb(51.372549%,33.72549%,56.470588%);fill-opacity:1;" d="M 99.996094 73.464844 C 100.324219 73.453125 100.648438 73.535156 100.972656 73.597656 C 102.03125 73.789062 103.054688 74.09375 104.039062 74.515625 C 104.597656 74.753906 105.136719 75.035156 105.648438 75.359375 C 105.679688 75.382812 105.714844 75.40625 105.742188 75.4375 C 105.863281 75.613281 105.847656 75.808594 105.847656 76.007812 C 105.847656 78.757812 105.847656 81.503906 105.847656 84.253906 C 105.847656 90.265625 105.847656 96.277344 105.847656 102.28125 C 105.847656 102.484375 105.886719 102.695312 105.769531 102.882812 C 105.558594 102.949219 105.34375 102.910156 105.132812 102.910156 C 104.347656 102.898438 103.558594 102.949219 102.78125 102.886719 C 102.671875 102.859375 102.625 102.761719 102.546875 102.695312 C 102.492188 102.648438 102.460938 102.574219 102.460938 102.503906 C 102.460938 102.40625 102.460938 102.316406 102.460938 102.226562 C 102.460938 97.523438 102.460938 92.820312 102.460938 88.117188 C 102.46875 87.199219 102.347656 86.285156 102.101562 85.402344 C 101.910156 84.695312 101.578125 84.035156 101.128906 83.453125 C 100.828125 83.074219 100.46875 82.746094 100.0625 82.480469 C 99.976562 82.429688 99.894531 82.363281 99.808594 82.308594 C 99.894531 82.105469 99.898438 81.886719 99.898438 81.671875 C 99.898438 79.117188 99.898438 76.558594 99.898438 73.996094 C 99.898438 73.816406 99.859375 73.625 99.996094 73.464844 Z M 99.996094 73.464844 "/>
<path style=" stroke:none;fill-rule:nonzero;fill:rgb(54.117647%,37.254902%,56.078431%);fill-opacity:1;" d="M 112.480469 74.269531 C 112.5 74.230469 112.542969 74.207031 112.578125 74.207031 C 112.667969 74.207031 112.765625 74.203125 112.855469 74.203125 C 115.804688 74.203125 118.765625 74.207031 121.714844 74.195312 C 122.050781 74.195312 122.304688 74.347656 122.574219 74.484375 C 122.640625 74.519531 122.6875 74.605469 122.734375 74.671875 C 123.136719 75.238281 123.539062 75.816406 123.941406 76.390625 C 124.246094 76.828125 124.554688 77.269531 124.859375 77.707031 C 124.902344 77.765625 124.957031 77.8125 124.96875 77.890625 C 124.996094 77.976562 125.015625 78.070312 125.015625 78.160156 C 124.972656 84.625 125.011719 91.078125 124.992188 97.542969 C 124.992188 97.78125 125.039062 98.011719 125.015625 98.25 C 124.835938 98.585938 124.597656 98.886719 124.378906 99.199219 C 123.640625 100.265625 122.898438 101.320312 122.160156 102.390625 C 122.050781 102.539062 121.914062 102.660156 121.746094 102.742188 C 121.542969 102.863281 121.308594 102.925781 121.066406 102.925781 C 120.964844 102.917969 120.863281 102.925781 120.761719 102.925781 C 117.929688 102.925781 115.105469 102.925781 112.273438 102.925781 C 112.152344 102.925781 112.027344 102.960938 111.910156 102.882812 C 112.007812 102.785156 112.132812 102.785156 112.261719 102.785156 C 113.933594 102.785156 115.609375 102.773438 117.28125 102.792969 C 118.351562 102.773438 119.425781 102.792969 120.492188 102.785156 C 120.949219 102.785156 120.953125 102.773438 120.953125 102.316406 C 120.953125 98.105469 120.953125 93.894531 120.953125 89.683594 C 120.953125 89.609375 120.949219 89.539062 120.929688 89.464844 C 121.09375 89.164062 121.3125 88.90625 121.5 88.625 C 121.613281 88.457031 121.738281 88.289062 121.859375 88.121094 C 121.992188 87.9375 122.003906 87.960938 121.855469 87.75 C 121.585938 87.378906 121.308594 87 121.039062 86.628906 C 120.988281 86.578125 120.949219 86.515625 120.929688 86.449219 C 120.976562 86.242188 120.960938 86.039062 120.960938 85.835938 C 120.960938 82.183594 120.960938 78.527344 120.960938 74.867188 C 120.960938 74.8125 120.960938 74.765625 120.960938 74.710938 C 120.949219 74.394531 120.925781 74.363281 120.59375 74.363281 C 119.59375 74.359375 118.597656 74.363281 117.601562 74.363281 C 117.472656 74.363281 117.355469 74.363281 117.226562 74.359375 C 115.757812 74.375 114.289062 74.363281 112.816406 74.363281 C 112.703125 74.363281 112.578125 74.363281 112.480469 74.269531 Z M 112.480469 74.269531 "/>
<path style=" stroke:none;fill-rule:nonzero;fill:rgb(51.764706%,34.117647%,56.470588%);fill-opacity:1;" d="M 105.738281 102.875 C 105.738281 96.449219 105.738281 90.023438 105.738281 83.597656 C 105.738281 80.878906 105.738281 78.15625 105.738281 75.4375 C 105.910156 75.503906 106.054688 75.628906 106.207031 75.730469 C 107.65625 76.777344 108.828125 78.167969 109.589844 79.789062 C 109.609375 79.835938 109.625 79.882812 109.636719 79.933594 C 109.667969 80.21875 109.675781 80.507812 109.667969 80.796875 C 109.667969 87.949219 109.667969 95.09375 109.667969 102.246094 C 109.667969 102.910156 109.667969 102.910156 108.996094 102.910156 C 108.007812 102.910156 107.015625 102.910156 106.03125 102.910156 C 105.941406 102.910156 105.835938 102.949219 105.738281 102.875 Z M 105.738281 102.875 "/>
<path style=" stroke:none;fill-rule:nonzero;fill:rgb(48.235294%,29.019608%,56.470588%);fill-opacity:1;" d="M 81.390625 102.886719 C 81.28125 102.859375 81.234375 102.761719 81.15625 102.695312 C 81.101562 102.648438 81.070312 102.574219 81.078125 102.503906 C 81.085938 102.414062 81.078125 102.316406 81.078125 102.226562 L 81.078125 74.875 C 81.078125 74.84375 81.078125 74.8125 81.078125 74.777344 C 81.046875 74.550781 81.121094 74.375 81.328125 74.269531 C 81.636719 74.203125 81.941406 74.238281 82.246094 74.242188 C 82.996094 74.25 83.746094 74.207031 84.492188 74.269531 C 84.617188 74.429688 84.582031 74.621094 84.582031 74.808594 C 84.582031 77.179688 84.582031 79.542969 84.582031 81.910156 C 84.582031 88.703125 84.582031 95.503906 84.582031 102.292969 C 84.582031 102.496094 84.625 102.707031 84.496094 102.894531 C 84.300781 102.964844 84.097656 102.925781 83.890625 102.925781 C 83.160156 102.929688 82.421875 102.929688 81.683594 102.925781 C 81.589844 102.910156 81.484375 102.941406 81.390625 102.886719 Z M 81.390625 102.886719 "/>
<path style=" stroke:none;fill-rule:nonzero;fill:rgb(55.294118%,39.215686%,56.078431%);fill-opacity:1;" d="M 134.476562 102.875 L 132.882812 102.882812 C 132.726562 102.882812 132.574219 102.886719 132.421875 102.886719 C 132.191406 102.859375 132.007812 102.714844 131.808594 102.613281 C 131.761719 102.574219 131.71875 102.527344 131.6875 102.472656 C 131.320312 101.953125 130.957031 101.429688 130.597656 100.902344 C 130.585938 100.882812 130.578125 100.859375 130.578125 100.84375 C 130.621094 100.648438 130.609375 100.453125 130.609375 100.261719 C 130.609375 92.0625 130.609375 83.863281 130.609375 75.664062 C 130.609375 75.5625 130.621094 75.460938 130.585938 75.359375 C 130.738281 75.070312 130.945312 74.820312 131.128906 74.550781 C 131.160156 74.507812 131.195312 74.472656 131.242188 74.453125 C 131.386719 74.382812 131.527344 74.285156 131.6875 74.25 C 132.625 74.207031 133.554688 74.214844 134.488281 74.25 C 134.605469 74.382812 134.578125 74.539062 134.578125 74.695312 C 134.585938 77.730469 134.574219 80.765625 134.585938 83.800781 C 134.585938 83.902344 134.574219 84.007812 134.550781 84.109375 C 134.382812 84.40625 134.164062 84.664062 133.96875 84.941406 C 133.296875 85.871094 132.617188 86.808594 131.933594 87.738281 C 131.898438 87.785156 131.863281 87.839844 131.832031 87.894531 C 131.808594 87.929688 131.8125 87.976562 131.839844 88.007812 C 131.890625 88.09375 131.953125 88.175781 132.011719 88.261719 C 132.816406 89.394531 133.613281 90.527344 134.417969 91.660156 C 134.464844 91.726562 134.503906 91.800781 134.542969 91.871094 C 134.574219 92.003906 134.578125 92.136719 134.578125 92.269531 C 134.574219 95.617188 134.574219 98.964844 134.574219 102.3125 C 134.574219 102.503906 134.621094 102.707031 134.476562 102.875 Z M 134.476562 102.875 "/>
<path style=" stroke:none;fill-rule:nonzero;fill:rgb(49.019608%,30.196078%,56.470588%);fill-opacity:1;" d="M 84.484375 74.269531 L 81.328125 74.269531 C 81.347656 74.230469 81.390625 74.207031 81.425781 74.207031 C 81.511719 74.207031 81.589844 74.203125 81.671875 74.203125 L 89.023438 74.203125 C 89.039062 74.203125 89.0625 74.203125 89.082031 74.203125 C 89.316406 74.152344 89.441406 74.304688 89.574219 74.453125 C 89.628906 74.515625 89.621094 74.585938 89.621094 74.65625 C 89.621094 74.863281 89.621094 75.070312 89.621094 75.277344 C 89.621094 75.359375 89.664062 75.378906 89.742188 75.347656 C 89.855469 75.300781 89.953125 75.214844 90.078125 75.191406 C 90.265625 75.121094 90.347656 75.214844 90.371094 75.390625 C 90.390625 75.535156 90.390625 75.679688 90.382812 75.820312 C 90.382812 78.246094 90.382812 80.675781 90.378906 83.101562 C 90.378906 83.351562 90.480469 83.609375 90.34375 83.863281 C 90.175781 84.03125 90.007812 84.191406 89.84375 84.367188 C 89.566406 84.652344 89.617188 84.570312 89.617188 84.929688 C 89.617188 90.683594 89.617188 96.445312 89.617188 102.199219 C 89.609375 102.269531 89.609375 102.34375 89.617188 102.414062 C 89.652344 102.652344 89.476562 102.761719 89.328125 102.886719 C 89.292969 102.90625 89.25 102.917969 89.207031 102.910156 C 89.160156 102.917969 89.105469 102.910156 89.050781 102.910156 C 86.59375 102.917969 84.132812 102.917969 81.671875 102.925781 C 81.570312 102.925781 81.46875 102.953125 81.371094 102.886719 C 82.285156 102.886719 83.191406 102.886719 84.097656 102.886719 C 84.214844 102.886719 84.34375 102.882812 84.460938 102.875 C 84.582031 102.773438 84.730469 102.785156 84.875 102.785156 C 85.277344 102.78125 85.679688 102.78125 86.082031 102.785156 C 86.296875 102.785156 86.40625 102.703125 86.398438 102.472656 C 86.398438 102.359375 86.398438 102.246094 86.398438 102.132812 C 86.398438 93.089844 86.398438 84.046875 86.398438 75.007812 C 86.398438 74.308594 86.425781 74.363281 85.765625 74.363281 C 85.453125 74.363281 85.144531 74.363281 84.839844 74.363281 C 84.730469 74.363281 84.59375 74.363281 84.484375 74.269531 Z M 84.484375 74.269531 "/>
<path style=" stroke:none;fill-rule:nonzero;fill:rgb(46.27451%,26.27451%,56.470588%);fill-opacity:1;" d="M 68.585938 102.894531 C 68.449219 102.859375 68.382812 102.730469 68.285156 102.640625 C 68.257812 102.601562 68.238281 102.550781 68.242188 102.496094 C 68.242188 102.402344 68.242188 102.3125 68.242188 102.222656 L 68.242188 74.890625 C 68.242188 74.875 68.242188 74.851562 68.242188 74.832031 C 68.203125 74.578125 68.304688 74.394531 68.519531 74.261719 C 69.394531 74.226562 70.273438 74.226562 71.148438 74.261719 C 71.269531 74.410156 71.238281 74.597656 71.238281 74.765625 C 71.238281 76.675781 71.238281 78.574219 71.238281 80.476562 C 71.238281 87.742188 71.238281 95.015625 71.238281 102.28125 C 71.238281 102.484375 71.28125 102.695312 71.152344 102.882812 C 70.738281 102.949219 70.320312 102.90625 69.898438 102.910156 C 69.460938 102.910156 69.019531 102.949219 68.585938 102.894531 Z M 68.585938 102.894531 "/>
<path style=" stroke:none;fill-rule:nonzero;fill:rgb(54.901961%,38.823529%,56.078431%);fill-opacity:1;" d="M 130.578125 75.371094 C 130.636719 75.382812 130.699219 75.40625 130.703125 75.484375 C 130.710938 75.589844 130.710938 75.691406 130.710938 75.792969 L 130.710938 100.429688 C 130.710938 100.53125 130.710938 100.632812 130.703125 100.734375 C 130.699219 100.8125 130.636719 100.828125 130.578125 100.847656 L 130.585938 100.847656 C 130.570312 100.816406 130.546875 100.800781 130.523438 100.777344 C 130.378906 100.636719 130.289062 100.464844 130.175781 100.308594 C 129.148438 98.832031 128.125 97.363281 127.097656 95.886719 C 127.042969 95.808594 126.988281 95.734375 126.929688 95.664062 C 126.898438 95.621094 126.851562 95.652344 126.816406 95.65625 C 126.773438 95.398438 126.839844 95.148438 126.839844 94.890625 C 126.835938 90.371094 126.835938 85.847656 126.839844 81.328125 C 126.839844 81.054688 126.757812 80.785156 126.808594 80.507812 C 126.871094 80.539062 126.917969 80.554688 126.964844 80.484375 C 127.085938 80.304688 127.210938 80.128906 127.339844 79.957031 C 128.335938 78.535156 129.328125 77.113281 130.324219 75.691406 C 130.363281 75.640625 130.402344 75.59375 130.445312 75.550781 C 130.5 75.535156 130.488281 75.46875 130.523438 75.4375 C 130.542969 75.421875 130.566406 75.402344 130.578125 75.371094 Z M 130.578125 75.371094 "/>
<path style=" stroke:none;fill-rule:nonzero;fill:rgb(47.058824%,27.45098%,56.470588%);fill-opacity:1;" d="M 68.585938 102.894531 L 70.738281 102.886719 C 70.871094 102.886719 71.003906 102.882812 71.140625 102.875 C 71.285156 102.761719 71.453125 102.785156 71.617188 102.785156 C 72.5625 102.78125 73.511719 102.785156 74.460938 102.785156 C 74.84375 102.785156 74.867188 102.757812 74.875 102.390625 C 74.875 102.304688 74.875 102.222656 74.875 102.144531 C 74.875 93.101562 74.875 84.058594 74.875 75.011719 C 74.875 74.316406 74.902344 74.371094 74.238281 74.371094 C 73.363281 74.371094 72.484375 74.371094 71.609375 74.371094 C 71.449219 74.371094 71.273438 74.386719 71.136719 74.269531 C 70.375 74.269531 69.617188 74.269531 68.855469 74.269531 C 68.742188 74.269531 68.628906 74.261719 68.515625 74.261719 C 68.539062 74.226562 68.578125 74.207031 68.621094 74.207031 C 68.707031 74.207031 68.785156 74.203125 68.867188 74.203125 L 76.1875 74.203125 C 76.207031 74.203125 76.230469 74.203125 76.246094 74.203125 C 76.492188 74.152344 76.625 74.316406 76.765625 74.472656 C 76.792969 74.515625 76.8125 74.5625 76.8125 74.617188 C 76.8125 74.699219 76.8125 74.785156 76.8125 74.863281 L 76.8125 102.265625 C 76.804688 102.292969 76.804688 102.324219 76.8125 102.355469 C 76.859375 102.601562 76.699219 102.730469 76.535156 102.863281 C 76.492188 102.894531 76.445312 102.90625 76.390625 102.910156 C 76.308594 102.917969 76.222656 102.917969 76.144531 102.917969 C 73.734375 102.917969 71.328125 102.917969 68.914062 102.917969 C 68.808594 102.925781 68.6875 102.949219 68.585938 102.894531 Z M 68.585938 102.894531 "/>
<path style=" stroke:none;fill-rule:nonzero;fill:rgb(53.72549%,36.862745%,56.078431%);fill-opacity:1;" d="M 120.941406 89.472656 C 121.007812 89.484375 121.0625 89.515625 121.0625 89.585938 C 121.0625 89.65625 121.066406 89.753906 121.066406 89.832031 L 121.066406 102.492188 C 121.066406 102.574219 121.066406 102.660156 121.0625 102.738281 C 121.054688 102.847656 121.027344 102.875 120.90625 102.882812 C 120.863281 102.882812 120.820312 102.882812 120.78125 102.882812 L 117.445312 102.882812 C 117.394531 102.882812 117.34375 102.875 117.289062 102.875 C 117.148438 102.71875 117.191406 102.527344 117.191406 102.34375 C 117.1875 100.078125 117.1875 97.816406 117.191406 95.554688 C 117.191406 95.296875 117.1875 95.039062 117.167969 94.789062 C 117.191406 94.738281 117.214844 94.699219 117.238281 94.65625 C 118.410156 93.007812 119.574219 91.355469 120.742188 89.707031 C 120.773438 89.664062 120.808594 89.628906 120.847656 89.59375 C 120.925781 89.578125 120.910156 89.507812 120.941406 89.472656 Z M 120.941406 89.472656 "/>
<path style=" stroke:none;fill-rule:nonzero;fill:rgb(53.72549%,36.862745%,56.078431%);fill-opacity:1;" d="M 117.234375 74.269531 L 120.691406 74.269531 C 121.097656 74.269531 121.066406 74.25 121.066406 74.65625 L 121.066406 86.039062 C 121.066406 86.113281 121.066406 86.183594 121.066406 86.257812 C 121.066406 86.339844 121.015625 86.417969 120.9375 86.449219 L 120.941406 86.449219 C 120.929688 86.417969 120.90625 86.398438 120.882812 86.375 C 120.847656 86.347656 120.859375 86.28125 120.804688 86.257812 L 120.808594 86.261719 C 120.796875 86.230469 120.78125 86.207031 120.75 86.191406 L 120.757812 86.195312 C 120.738281 86.171875 120.71875 86.148438 120.703125 86.128906 C 120.4375 85.835938 120.226562 85.507812 120 85.195312 C 119.082031 83.941406 118.164062 82.679688 117.257812 81.421875 C 117.222656 81.367188 117.191406 81.316406 117.167969 81.265625 C 117.109375 80.398438 117.144531 79.542969 117.136719 78.679688 C 117.132812 77.375 117.136719 76.066406 117.136719 74.765625 C 117.136719 74.597656 117.109375 74.417969 117.234375 74.269531 Z M 117.234375 74.269531 "/>
<path style=" stroke:none;fill-rule:nonzero;fill:rgb(54.509804%,38.039216%,56.078431%);fill-opacity:1;" d="M 126.808594 80.519531 C 126.820312 80.566406 126.847656 80.617188 126.871094 80.65625 C 126.917969 80.722656 126.941406 80.808594 126.9375 80.886719 C 126.9375 80.929688 126.9375 80.96875 126.9375 81.011719 C 126.9375 85.738281 126.9375 90.472656 126.9375 95.203125 C 126.9375 95.371094 126.910156 95.527344 126.816406 95.664062 C 126.742188 95.84375 126.613281 95.988281 126.496094 96.148438 C 126.054688 96.796875 125.605469 97.441406 125.152344 98.082031 C 125.113281 98.140625 125.0625 98.191406 125.023438 98.242188 C 124.933594 98.082031 124.882812 97.894531 124.894531 97.714844 C 124.902344 91.296875 124.902344 84.882812 124.894531 78.460938 C 124.894531 78.265625 124.949219 78.078125 124.96875 77.886719 C 125.171875 78.089844 125.308594 78.34375 125.472656 78.574219 C 125.890625 79.164062 126.304688 79.765625 126.71875 80.359375 C 126.757812 80.410156 126.78125 80.464844 126.808594 80.519531 Z M 126.808594 80.519531 "/>
<path style=" stroke:none;fill-rule:nonzero;fill:rgb(50.588235%,32.54902%,56.470588%);fill-opacity:1;" d="M 99.996094 73.464844 L 99.996094 81.875 C 99.996094 81.960938 99.996094 82.039062 99.996094 82.121094 C 99.988281 82.265625 99.988281 82.265625 99.808594 82.300781 C 99.691406 82.246094 99.570312 82.1875 99.449219 82.132812 C 98.863281 81.871094 98.238281 81.695312 97.597656 81.613281 C 97.015625 81.535156 96.433594 81.539062 95.851562 81.550781 L 95.484375 81.558594 C 95.503906 81.394531 95.640625 81.414062 95.742188 81.402344 C 95.941406 81.382812 96.007812 81.277344 96 81.097656 C 96 81.035156 96 80.96875 96 80.910156 C 96 78.605469 95.992188 76.300781 96.007812 73.996094 C 96.007812 73.734375 95.96875 73.511719 95.710938 73.386719 C 95.746094 73.367188 95.789062 73.355469 95.824219 73.351562 C 96.726562 73.261719 97.625 73.246094 98.527344 73.3125 C 98.890625 73.34375 99.265625 73.367188 99.628906 73.398438 C 99.757812 73.410156 99.875 73.429688 99.996094 73.464844 Z M 99.996094 73.464844 "/>
<path style=" stroke:none;fill-rule:nonzero;fill:rgb(56.078431%,40%,56.078431%);fill-opacity:1;" d="M 134.476562 102.875 C 134.476562 99.347656 134.476562 95.820312 134.476562 92.292969 C 134.476562 92.148438 134.460938 92.003906 134.542969 91.871094 C 134.578125 91.90625 134.617188 91.945312 134.644531 91.984375 C 135.839844 93.671875 137.027344 95.351562 138.222656 97.039062 C 138.277344 97.109375 138.316406 97.195312 138.367188 97.273438 L 138.367188 102.582031 C 138.367188 102.625 138.367188 102.664062 138.367188 102.707031 C 138.359375 102.859375 138.335938 102.875 138.179688 102.886719 C 138.148438 102.886719 138.121094 102.886719 138.089844 102.886719 L 134.605469 102.886719 C 134.554688 102.886719 134.519531 102.882812 134.476562 102.875 Z M 134.476562 102.875 "/>
<path style=" stroke:none;fill-rule:nonzero;fill:rgb(49.803922%,31.372549%,56.470588%);fill-opacity:1;" d="M 95.710938 73.390625 L 95.867188 73.398438 C 96.097656 73.410156 96.101562 73.410156 96.101562 73.65625 C 96.101562 73.914062 96.101562 74.171875 96.101562 74.429688 L 96.101562 81.121094 C 96.101562 81.511719 96.125 81.496094 95.742188 81.496094 C 95.652344 81.496094 95.554688 81.472656 95.484375 81.558594 C 95.328125 81.628906 95.160156 81.613281 95.003906 81.640625 C 94.105469 81.796875 93.234375 82.085938 92.417969 82.492188 C 92.371094 82.511719 92.320312 82.53125 92.273438 82.542969 C 92.152344 82.34375 92.179688 82.121094 92.179688 81.910156 C 92.179688 79.667969 92.179688 77.429688 92.179688 75.1875 C 92.179688 74.878906 92.179688 74.566406 92.148438 74.261719 C 92.476562 74.09375 92.839844 74.003906 93.1875 73.894531 C 93.882812 73.6875 94.597656 73.523438 95.316406 73.414062 C 95.449219 73.398438 95.578125 73.402344 95.710938 73.390625 Z M 95.710938 73.390625 "/>
<path style=" stroke:none;fill-rule:nonzero;fill:rgb(52.156863%,34.901961%,56.470588%);fill-opacity:1;" d="M 105.738281 102.875 C 105.894531 102.882812 106.042969 102.886719 106.199219 102.886719 L 109.164062 102.886719 C 109.601562 102.886719 109.570312 102.917969 109.570312 102.492188 L 109.570312 80.386719 C 109.570312 80.230469 109.554688 80.074219 109.644531 79.9375 C 109.734375 80.039062 109.777344 80.171875 109.824219 80.292969 C 110.261719 81.324219 110.574219 82.410156 110.753906 83.515625 C 110.929688 84.570312 111.011719 85.636719 111.007812 86.710938 C 111 91.871094 111 97.03125 111.007812 102.191406 C 111 102.265625 111 102.335938 111.007812 102.40625 C 111.023438 102.570312 110.957031 102.683594 110.84375 102.785156 C 110.765625 102.871094 110.65625 102.910156 110.542969 102.910156 C 110.128906 102.910156 109.722656 102.925781 109.308594 102.925781 C 107.238281 102.925781 105.167969 102.925781 103.097656 102.925781 C 102.988281 102.925781 102.871094 102.953125 102.769531 102.886719 C 103.636719 102.886719 104.503906 102.886719 105.371094 102.886719 C 105.496094 102.886719 105.617188 102.882812 105.738281 102.875 Z M 105.738281 102.875 "/>
<path style=" stroke:none;fill-rule:nonzero;fill:rgb(56.078431%,40%,56.078431%);fill-opacity:1;" d="M 134.550781 84.113281 C 134.503906 84.023438 134.472656 83.921875 134.476562 83.820312 C 134.484375 83.707031 134.476562 83.59375 134.476562 83.476562 L 134.476562 74.269531 C 134.628906 74.207031 134.785156 74.238281 134.933594 74.238281 C 135.960938 74.230469 136.984375 74.238281 138.011719 74.238281 C 138.367188 74.238281 138.402344 74.261719 138.402344 74.621094 C 138.414062 75.570312 138.40625 76.511719 138.402344 77.453125 C 138.402344 77.898438 138.421875 78.335938 138.425781 78.78125 C 138.1875 79.175781 137.890625 79.535156 137.621094 79.90625 C 136.65625 81.238281 135.691406 82.570312 134.71875 83.902344 C 134.675781 83.980469 134.617188 84.054688 134.550781 84.113281 Z M 134.550781 84.113281 "/>
<path style=" stroke:none;fill-rule:nonzero;fill:rgb(52.941176%,36.078431%,56.470588%);fill-opacity:1;" d="M 117.175781 94.789062 C 117.253906 94.855469 117.292969 94.957031 117.292969 95.058594 C 117.292969 95.113281 117.292969 95.160156 117.292969 95.214844 C 117.292969 97.769531 117.292969 100.320312 117.292969 102.875 C 117.191406 102.875 117.089844 102.882812 116.988281 102.882812 L 111.925781 102.882812 C 111.792969 102.835938 111.730469 102.707031 111.636719 102.636719 C 111.648438 102.558594 111.683594 102.484375 111.738281 102.425781 C 113.425781 100.050781 115.109375 97.675781 116.789062 95.292969 C 116.824219 95.242188 116.867188 95.203125 116.910156 95.152344 C 116.964844 95.101562 117.011719 95.035156 117.042969 94.96875 C 117.070312 94.949219 117.089844 94.925781 117.101562 94.894531 L 117.097656 94.902344 C 117.148438 94.882812 117.136719 94.816406 117.175781 94.789062 Z M 117.175781 94.789062 "/>
<path style=" stroke:none;fill-rule:nonzero;fill:rgb(52.941176%,36.078431%,56.470588%);fill-opacity:1;" d="M 117.234375 74.269531 C 117.234375 76.480469 117.234375 78.703125 117.234375 80.921875 C 117.234375 81.042969 117.277344 81.175781 117.160156 81.269531 L 117.167969 81.265625 C 117.160156 81.226562 117.132812 81.214844 117.109375 81.191406 C 117.066406 81.132812 117.035156 81.054688 116.976562 81.007812 C 116.824219 80.863281 116.722656 80.6875 116.605469 80.519531 C 115.195312 78.582031 113.789062 76.648438 112.378906 74.710938 C 112.21875 74.484375 112.1875 74.527344 112.429688 74.296875 C 112.445312 74.285156 112.464844 74.273438 112.480469 74.269531 Z M 117.234375 74.269531 "/>
<path style=" stroke:none;fill-rule:nonzero;fill:rgb(49.411765%,30.980392%,56.470588%);fill-opacity:1;" d="M 92.140625 74.269531 C 92.207031 74.28125 92.261719 74.304688 92.261719 74.382812 C 92.269531 74.472656 92.269531 74.566406 92.269531 74.65625 C 92.269531 77.09375 92.269531 79.535156 92.269531 81.972656 C 92.269531 82.132812 92.257812 82.300781 92.292969 82.464844 C 92.296875 82.488281 92.273438 82.523438 92.269531 82.546875 C 92.238281 82.570312 92.203125 82.597656 92.171875 82.621094 C 91.578125 82.9375 91.019531 83.316406 90.503906 83.746094 C 90.457031 83.789062 90.40625 83.820312 90.355469 83.855469 C 90.359375 83.8125 90.355469 83.777344 90.347656 83.734375 C 90.269531 83.496094 90.289062 83.25 90.289062 83.003906 C 90.289062 80.542969 90.289062 78.089844 90.289062 75.636719 C 90.289062 75.550781 90.289062 75.472656 90.289062 75.390625 C 90.28125 75.234375 90.28125 75.234375 90.085938 75.199219 C 90.097656 75.179688 90.113281 75.167969 90.125 75.15625 C 90.757812 74.820312 91.410156 74.527344 92.082031 74.28125 C 92.101562 74.269531 92.117188 74.261719 92.140625 74.269531 Z M 92.140625 74.269531 "/>
<path style=" stroke:none;fill-rule:nonzero;fill:rgb(56.470588%,40.784314%,56.078431%);fill-opacity:1;" d="M 138.433594 78.773438 C 138.34375 78.613281 138.292969 78.425781 138.304688 78.246094 C 138.3125 77.050781 138.304688 75.859375 138.304688 74.664062 C 138.304688 74.574219 138.304688 74.476562 138.300781 74.386719 C 138.300781 74.320312 138.246094 74.273438 138.1875 74.273438 C 138.1875 74.273438 138.179688 74.273438 138.179688 74.273438 C 138.097656 74.269531 138.011719 74.269531 137.933594 74.269531 L 134.476562 74.269531 L 131.683594 74.261719 C 131.71875 74.21875 131.765625 74.203125 131.820312 74.203125 C 131.910156 74.203125 132.007812 74.203125 132.097656 74.203125 L 140.921875 74.203125 C 140.953125 74.207031 140.980469 74.207031 141.011719 74.203125 C 141.246094 74.152344 141.371094 74.304688 141.496094 74.453125 C 141.527344 74.484375 141.527344 74.53125 141.503906 74.566406 C 141.472656 74.621094 141.4375 74.671875 141.402344 74.722656 C 140.484375 75.988281 139.566406 77.25 138.648438 78.515625 C 138.574219 78.605469 138.503906 78.691406 138.433594 78.773438 Z M 138.433594 78.773438 "/>
<path style=" stroke:none;fill-rule:nonzero;fill:rgb(53.72549%,36.862745%,56.078431%);fill-opacity:1;" d="M 117.046875 94.96875 C 117.058594 95.058594 117 95.136719 116.914062 95.152344 C 116.933594 95.082031 116.980469 95.015625 117.046875 94.96875 Z M 117.046875 94.96875 "/>
<path style=" stroke:none;fill-rule:nonzero;fill:rgb(53.72549%,36.862745%,56.078431%);fill-opacity:1;" d="M 116.976562 81.007812 C 117.058594 81.023438 117.121094 81.101562 117.109375 81.191406 C 117.042969 81.148438 116.992188 81.085938 116.976562 81.007812 Z M 116.976562 81.007812 "/>
<path style=" stroke:none;fill-rule:nonzero;fill:rgb(53.72549%,36.862745%,56.078431%);fill-opacity:1;" d="M 117.175781 94.789062 C 117.175781 94.84375 117.160156 94.890625 117.101562 94.90625 C 117.101562 94.859375 117.132812 94.8125 117.175781 94.789062 Z M 117.175781 94.789062 "/>
<path style=" stroke:none;fill-rule:nonzero;fill:rgb(54.117647%,37.254902%,56.078431%);fill-opacity:1;" d="M 120.941406 89.472656 C 120.941406 89.53125 120.925781 89.578125 120.851562 89.59375 C 120.863281 89.539062 120.898438 89.496094 120.941406 89.472656 Z M 120.941406 89.472656 "/>
<path style=" stroke:none;fill-rule:nonzero;fill:rgb(54.117647%,37.254902%,56.078431%);fill-opacity:1;" d="M 120.804688 86.261719 C 120.863281 86.28125 120.875 86.328125 120.882812 86.382812 C 120.835938 86.363281 120.804688 86.316406 120.804688 86.261719 Z M 120.804688 86.261719 "/>
<path style=" stroke:none;fill-rule:nonzero;fill:rgb(55.294118%,39.215686%,56.078431%);fill-opacity:1;" d="M 130.523438 75.445312 C 130.519531 75.496094 130.507812 75.546875 130.445312 75.558594 C 130.453125 75.511719 130.480469 75.46875 130.523438 75.445312 Z M 130.523438 75.445312 "/>
<path style=" stroke:none;fill-rule:nonzero;fill:rgb(46.666667%,26.666667%,56.470588%);fill-opacity:1;" d="M 70.132812 69.328125 C 70.171875 69.328125 70.199219 69.359375 70.199219 69.394531 C 70.164062 69.394531 70.132812 69.367188 70.132812 69.328125 Z M 70.132812 69.328125 "/>
<path style=" stroke:none;fill-rule:nonzero;fill:rgb(46.666667%,26.666667%,56.470588%);fill-opacity:1;" d="M 70.195312 69.390625 C 70.230469 69.390625 70.261719 69.421875 70.261719 69.457031 C 70.222656 69.457031 70.199219 69.425781 70.195312 69.390625 Z M 70.195312 69.390625 "/>
<path style=" stroke:none;fill-rule:nonzero;fill:rgb(46.666667%,26.666667%,56.470588%);fill-opacity:1;" d="M 70.253906 69.457031 C 70.289062 69.457031 70.320312 69.484375 70.320312 69.523438 C 70.289062 69.515625 70.261719 69.492188 70.253906 69.457031 Z M 70.253906 69.457031 "/>
<path style=" stroke:none;fill-rule:nonzero;fill:rgb(46.666667%,26.666667%,56.470588%);fill-opacity:1;" d="M 70.320312 69.515625 C 70.355469 69.515625 70.386719 69.546875 70.386719 69.582031 C 70.351562 69.574219 70.324219 69.550781 70.320312 69.515625 Z M 70.320312 69.515625 "/>
<path style=" stroke:none;fill-rule:nonzero;fill:rgb(46.666667%,26.666667%,56.470588%);fill-opacity:1;" d="M 70.378906 69.574219 C 70.414062 69.574219 70.445312 69.605469 70.445312 69.640625 C 70.414062 69.640625 70.386719 69.613281 70.378906 69.574219 Z M 70.378906 69.574219 "/>
<path style=" stroke:none;fill-rule:nonzero;fill:rgb(46.666667%,26.666667%,56.470588%);fill-opacity:1;" d="M 70.441406 69.640625 C 70.476562 69.640625 70.507812 69.671875 70.507812 69.707031 C 70.476562 69.703125 70.445312 69.671875 70.441406 69.640625 Z M 70.441406 69.640625 "/>
<path style=" stroke:none;fill-rule:nonzero;fill:rgb(46.666667%,26.666667%,56.470588%);fill-opacity:1;" d="M 69.203125 68.40625 C 69.238281 68.40625 69.269531 68.4375 69.269531 68.472656 C 69.238281 68.464844 69.210938 68.4375 69.203125 68.40625 Z M 69.203125 68.40625 "/>
<path style=" stroke:none;fill-rule:nonzero;fill:rgb(46.666667%,26.666667%,56.470588%);fill-opacity:1;" d="M 70.566406 69.761719 C 70.601562 69.761719 70.632812 69.792969 70.632812 69.828125 C 70.597656 69.828125 70.570312 69.796875 70.566406 69.761719 Z M 70.566406 69.761719 "/>
<path style=" stroke:none;fill-rule:nonzero;fill:rgb(46.666667%,26.666667%,56.470588%);fill-opacity:1;" d="M 70.625 69.828125 C 70.660156 69.828125 70.691406 69.859375 70.691406 69.894531 C 70.660156 69.886719 70.632812 69.859375 70.625 69.828125 Z M 70.625 69.828125 "/>
<path style=" stroke:none;fill-rule:nonzero;fill:rgb(46.666667%,26.666667%,56.470588%);fill-opacity:1;" d="M 70.6875 69.886719 C 70.722656 69.886719 70.753906 69.917969 70.753906 69.953125 C 70.722656 69.949219 70.691406 69.925781 70.6875 69.886719 Z M 70.6875 69.886719 "/>
<path style=" stroke:none;fill-rule:nonzero;fill:rgb(46.666667%,26.666667%,56.470588%);fill-opacity:1;" d="M 70.753906 69.949219 C 70.789062 69.949219 70.816406 69.976562 70.816406 70.015625 C 70.78125 70.015625 70.753906 69.984375 70.753906 69.949219 Z M 70.753906 69.949219 "/>
<path style=" stroke:none;fill-rule:nonzero;fill:rgb(46.666667%,26.666667%,56.470588%);fill-opacity:1;" d="M 70.8125 70.007812 C 70.847656 70.007812 70.878906 70.039062 70.878906 70.074219 C 70.84375 70.074219 70.816406 70.042969 70.8125 70.007812 Z M 70.8125 70.007812 "/>
<path style=" stroke:none;fill-rule:nonzero;fill:rgb(46.666667%,26.666667%,56.470588%);fill-opacity:1;" d="M 69.144531 68.339844 C 69.179688 68.339844 69.210938 68.371094 69.210938 68.40625 C 69.175781 68.40625 69.148438 68.375 69.144531 68.339844 Z M 69.144531 68.339844 "/>
<path style=" stroke:none;fill-rule:nonzero;fill:rgb(46.666667%,26.666667%,56.470588%);fill-opacity:1;" d="M 69.070312 68.28125 C 69.113281 68.28125 69.144531 68.308594 69.148438 68.351562 C 69.113281 68.339844 69.085938 68.316406 69.070312 68.28125 Z M 69.070312 68.28125 "/>
<path style=" stroke:none;fill-rule:nonzero;fill:rgb(55.294118%,39.215686%,56.078431%);fill-opacity:1;" d="M 130.585938 75.371094 L 130.53125 75.445312 C 130.523438 75.40625 130.546875 75.378906 130.585938 75.371094 Z M 130.585938 75.371094 "/>
<path style=" stroke:none;fill-rule:nonzero;fill:rgb(46.666667%,26.666667%,56.470588%);fill-opacity:1;" d="M 70.066406 69.269531 C 70.105469 69.269531 70.132812 69.300781 70.132812 69.335938 C 70.105469 69.328125 70.074219 69.304688 70.066406 69.269531 Z M 70.066406 69.269531 "/>
<path style=" stroke:none;fill-rule:nonzero;fill:rgb(46.666667%,26.666667%,56.470588%);fill-opacity:1;" d="M 70.007812 69.203125 C 70.042969 69.203125 70.074219 69.234375 70.074219 69.269531 C 70.039062 69.269531 70.015625 69.238281 70.007812 69.203125 Z M 70.007812 69.203125 "/>
<path style=" stroke:none;fill-rule:nonzero;fill:rgb(53.72549%,36.862745%,56.078431%);fill-opacity:1;" d="M 117.109375 81.191406 C 117.136719 81.203125 117.160156 81.226562 117.167969 81.265625 C 117.136719 81.253906 117.113281 81.226562 117.109375 81.191406 Z M 117.109375 81.191406 "/>
<path style=" stroke:none;fill-rule:nonzero;fill:rgb(54.117647%,37.254902%,56.078431%);fill-opacity:1;" d="M 120.703125 86.136719 L 120.757812 86.203125 C 120.726562 86.195312 120.703125 86.164062 120.703125 86.136719 Z M 120.703125 86.136719 "/>
<path style=" stroke:none;fill-rule:nonzero;fill:rgb(54.117647%,37.254902%,56.078431%);fill-opacity:1;" d="M 120.75 86.203125 C 120.78125 86.214844 120.804688 86.238281 120.808594 86.273438 C 120.78125 86.261719 120.757812 86.230469 120.75 86.203125 Z M 120.75 86.203125 "/>
<path style=" stroke:none;fill-rule:nonzero;fill:rgb(46.666667%,26.666667%,56.470588%);fill-opacity:1;" d="M 69.949219 69.144531 C 69.984375 69.144531 70.015625 69.175781 70.015625 69.210938 C 69.976562 69.210938 69.953125 69.179688 69.949219 69.144531 Z M 69.949219 69.144531 "/>
<path style=" stroke:none;fill-rule:nonzero;fill:rgb(54.117647%,37.254902%,56.078431%);fill-opacity:1;" d="M 120.882812 86.382812 L 120.941406 86.453125 C 120.910156 86.441406 120.882812 86.417969 120.882812 86.382812 Z M 120.882812 86.382812 "/>
<path style=" stroke:none;fill-rule:nonzero;fill:rgb(46.666667%,26.666667%,56.470588%);fill-opacity:1;" d="M 69.882812 69.085938 C 69.917969 69.085938 69.949219 69.113281 69.949219 69.148438 C 69.917969 69.144531 69.886719 69.121094 69.882812 69.085938 Z M 69.882812 69.085938 "/>
<path style=" stroke:none;fill-rule:nonzero;fill:rgb(46.666667%,26.666667%,56.470588%);fill-opacity:1;" d="M 69.820312 69.019531 C 69.859375 69.019531 69.886719 69.046875 69.886719 69.085938 C 69.859375 69.085938 69.828125 69.054688 69.820312 69.019531 Z M 69.820312 69.019531 "/>
<path style=" stroke:none;fill-rule:nonzero;fill:rgb(46.666667%,26.666667%,56.470588%);fill-opacity:1;" d="M 69.761719 68.957031 C 69.796875 68.957031 69.828125 68.988281 69.828125 69.023438 C 69.792969 69.023438 69.769531 68.992188 69.761719 68.957031 Z M 69.761719 68.957031 "/>
<path style=" stroke:none;fill-rule:nonzero;fill:rgb(43.529412%,22.352941%,56.862745%);fill-opacity:1;" d="M 51.671875 103.566406 C 51.460938 103.648438 51.234375 103.636719 51.011719 103.679688 C 50.800781 103.714844 50.585938 103.734375 50.375 103.757812 C 50.296875 103.800781 50.214844 103.777344 50.136719 103.78125 L 49.644531 103.78125 C 49.535156 103.792969 49.421875 103.746094 49.320312 103.8125 L 47.59375 103.8125 C 47.574219 103.777344 47.585938 103.734375 47.621094 103.714844 C 47.855469 103.65625 47.933594 103.5 47.929688 103.261719 C 47.921875 100.835938 47.921875 98.40625 47.929688 95.980469 C 47.929688 95.800781 47.851562 95.644531 47.839844 95.472656 C 48.042969 95.496094 48.246094 95.527344 48.445312 95.542969 C 49.5 95.644531 50.53125 95.539062 51.515625 95.117188 C 51.546875 95.105469 51.574219 95.101562 51.605469 95.101562 C 51.640625 95.0625 51.703125 95.074219 51.730469 95.035156 C 51.863281 95.035156 51.894531 95.140625 51.929688 95.238281 C 51.953125 95.316406 51.960938 95.398438 51.960938 95.484375 C 51.964844 98.003906 51.964844 100.523438 51.960938 103.050781 C 51.953125 103.265625 51.941406 103.488281 51.671875 103.566406 Z M 51.671875 103.566406 "/>
<path style=" stroke:none;fill-rule:nonzero;fill:rgb(51.372549%,33.333333%,62.745098%);fill-opacity:1;" d="M 49.320312 103.8125 C 49.410156 103.710938 49.523438 103.765625 49.632812 103.753906 C 49.648438 103.765625 49.65625 103.777344 49.648438 103.792969 C 49.644531 103.8125 49.636719 103.8125 49.632812 103.8125 Z M 49.320312 103.8125 "/>
<path style=" stroke:none;fill-rule:nonzero;fill:rgb(88.235294%,83.921569%,90.980392%);fill-opacity:1;" d="M 50.128906 103.765625 L 50.375 103.765625 L 50.375 103.816406 L 50.128906 103.816406 C 50.113281 103.804688 50.101562 103.792969 50.113281 103.78125 C 50.113281 103.769531 50.117188 103.765625 50.128906 103.765625 Z M 50.128906 103.765625 "/>
<path style=" stroke:none;fill-rule:nonzero;fill:rgb(74.509804%,64.705882%,80.784314%);fill-opacity:1;" d="M 50.128906 103.765625 C 50.128906 103.78125 50.125 103.800781 50.125 103.816406 L 49.878906 103.816406 C 49.859375 103.804688 49.847656 103.792969 49.859375 103.78125 C 49.867188 103.777344 49.871094 103.769531 49.882812 103.765625 Z M 50.128906 103.765625 "/>
<path style=" stroke:none;fill-rule:nonzero;fill:rgb(60.392157%,45.882353%,69.803922%);fill-opacity:1;" d="M 49.882812 103.757812 C 49.878906 103.777344 49.878906 103.792969 49.878906 103.8125 L 49.632812 103.8125 C 49.632812 103.792969 49.632812 103.769531 49.636719 103.753906 Z M 49.882812 103.757812 "/>
<path style=" stroke:none;fill-rule:nonzero;fill:rgb(58.431373%,43.137255%,68.627451%);fill-opacity:1;" d="M 47.59375 103.753906 C 47.59375 103.769531 47.59375 103.792969 47.59375 103.8125 L 47.339844 103.8125 C 47.320312 103.789062 47.320312 103.746094 47.351562 103.726562 C 47.351562 103.726562 47.351562 103.726562 47.359375 103.726562 C 47.429688 103.675781 47.527344 103.6875 47.59375 103.753906 Z M 47.59375 103.753906 "/>
<path style=" stroke:none;fill-rule:nonzero;fill:rgb(86.27451%,81.568627%,89.803922%);fill-opacity:1;" d="M 46.972656 103.8125 C 46.972656 103.792969 46.972656 103.777344 46.972656 103.753906 C 47.046875 103.679688 47.125 103.679688 47.207031 103.722656 C 47.238281 103.738281 47.242188 103.777344 47.226562 103.804688 C 47.226562 103.804688 47.226562 103.8125 47.21875 103.8125 Z M 46.972656 103.8125 "/>
<path style=" stroke:none;fill-rule:nonzero;fill:rgb(71.372549%,60.784314%,78.431373%);fill-opacity:1;" d="M 47.21875 103.8125 C 47.21875 103.792969 47.21875 103.777344 47.214844 103.765625 C 47.238281 103.726562 47.292969 103.722656 47.328125 103.746094 C 47.335938 103.753906 47.335938 103.753906 47.339844 103.757812 C 47.339844 103.777344 47.347656 103.792969 47.347656 103.8125 Z M 47.21875 103.8125 "/>
<path style=" stroke:none;fill-rule:nonzero;fill:rgb(44.705882%,23.921569%,56.470588%);fill-opacity:1;" d="M 61.566406 96.347656 C 61.546875 96.414062 61.523438 96.484375 61.492188 96.550781 C 60.671875 98.375 59.398438 99.953125 57.792969 101.136719 C 57.730469 101.179688 57.671875 101.214844 57.613281 101.25 C 57.546875 101.171875 57.5625 101.074219 57.5625 100.984375 C 57.574219 87.570312 57.582031 74.160156 57.570312 60.742188 C 57.570312 60.550781 57.527344 60.347656 57.652344 60.175781 C 57.742188 60.125 57.835938 60.148438 57.925781 60.148438 C 59.027344 60.148438 60.125 60.148438 61.230469 60.148438 C 61.546875 60.148438 61.578125 60.179688 61.597656 60.496094 C 61.601562 60.625 61.601562 60.742188 61.601562 60.871094 C 61.601562 72.503906 61.601562 84.136719 61.601562 95.773438 C 61.597656 95.957031 61.578125 96.148438 61.566406 96.347656 Z M 61.566406 96.347656 "/>
<path style=" stroke:none;fill-rule:nonzero;fill:rgb(43.921569%,23.137255%,56.862745%);fill-opacity:1;" d="M 57.660156 60.1875 C 57.660156 62.976562 57.660156 65.773438 57.660156 68.5625 L 57.660156 100.765625 C 57.660156 100.925781 57.671875 101.09375 57.601562 101.25 C 57.546875 101.296875 57.492188 101.347656 57.433594 101.382812 C 56.359375 102.109375 55.183594 102.671875 53.945312 103.050781 C 53.902344 103.0625 53.867188 103.066406 53.824219 103.066406 C 53.773438 102.972656 53.785156 102.871094 53.785156 102.769531 C 53.789062 99.382812 53.777344 95.992188 53.789062 92.609375 C 53.785156 92.484375 53.773438 92.363281 53.746094 92.242188 C 53.746094 92.089844 53.808594 91.945312 53.839844 91.792969 C 53.945312 91.289062 54.023438 90.78125 54.070312 90.269531 C 54.175781 89.261719 54.1875 88.253906 54.1875 87.246094 C 54.1875 78.472656 54.1875 69.703125 54.1875 60.929688 L 54.1875 60.742188 C 54.1875 60.402344 54.1875 60.402344 54.496094 60.175781 C 54.804688 60.109375 55.109375 60.148438 55.414062 60.144531 C 56.0625 60.136719 56.707031 60.136719 57.355469 60.144531 C 57.46875 60.144531 57.574219 60.109375 57.660156 60.1875 Z M 57.660156 60.1875 "/>
<path style=" stroke:none;fill-rule:nonzero;fill:rgb(45.098039%,24.705882%,56.470588%);fill-opacity:1;" d="M 57.660156 60.1875 C 57.527344 60.179688 57.390625 60.175781 57.257812 60.175781 C 56.339844 60.175781 55.421875 60.175781 54.511719 60.175781 C 54.613281 60.109375 54.730469 60.136719 54.839844 60.136719 C 56.753906 60.136719 58.667969 60.136719 60.582031 60.136719 C 61.128906 60.136719 61.675781 60.15625 62.21875 60.144531 C 62.453125 60.136719 62.578125 60.265625 62.707031 60.421875 C 62.730469 60.457031 62.742188 60.492188 62.742188 60.535156 C 62.746094 60.617188 62.746094 60.703125 62.746094 60.78125 C 62.746094 70.714844 62.746094 80.65625 62.746094 90.59375 C 62.761719 92.484375 62.398438 94.355469 61.6875 96.109375 C 61.648438 96.191406 61.625 96.289062 61.558594 96.355469 C 61.511719 96.277344 61.488281 96.179688 61.488281 96.089844 C 61.492188 96 61.488281 95.902344 61.488281 95.8125 L 61.488281 60.640625 C 61.488281 60.527344 61.488281 60.414062 61.480469 60.300781 C 61.480469 60.234375 61.429688 60.1875 61.367188 60.1875 C 61.367188 60.1875 61.367188 60.1875 61.363281 60.1875 C 61.308594 60.179688 61.261719 60.179688 61.207031 60.179688 L 57.808594 60.179688 C 57.769531 60.175781 57.714844 60.179688 57.660156 60.1875 Z M 57.660156 60.1875 "/>
<path style=" stroke:none;fill-rule:nonzero;fill:rgb(42.352941%,20.784314%,56.862745%);fill-opacity:1;" d="M 43.996094 102.949219 C 43.902344 102.949219 43.824219 102.898438 43.738281 102.863281 C 42.421875 102.292969 41.207031 101.503906 40.152344 100.53125 C 40.117188 100.492188 40.085938 100.457031 40.054688 100.414062 C 40.265625 100.402344 40.332031 100.300781 40.332031 100.085938 C 40.324219 97.792969 40.324219 95.507812 40.324219 93.214844 C 40.324219 93.042969 40.285156 92.867188 40.300781 92.695312 C 40.363281 92.621094 40.457031 92.59375 40.535156 92.550781 C 41.453125 92.070312 42.371094 91.589844 43.289062 91.109375 C 43.351562 91.074219 43.414062 91.042969 43.480469 91.019531 C 43.578125 90.984375 43.6875 90.984375 43.78125 91.027344 C 43.859375 91.0625 43.859375 91.15625 43.890625 91.234375 C 44.011719 91.570312 44.136719 91.90625 44.257812 92.242188 C 44.285156 92.488281 44.292969 92.734375 44.292969 92.980469 C 44.292969 96.085938 44.292969 99.179688 44.292969 102.28125 C 44.292969 102.4375 44.304688 102.59375 44.269531 102.742188 C 44.238281 102.882812 44.183594 103.007812 43.996094 102.949219 Z M 43.996094 102.949219 "/>
<path style=" stroke:none;fill-rule:nonzero;fill:rgb(42.745098%,21.176471%,56.862745%);fill-opacity:1;" d="M 43.996094 102.949219 C 44.101562 102.953125 44.183594 102.871094 44.191406 102.773438 C 44.191406 102.769531 44.191406 102.761719 44.191406 102.757812 C 44.191406 102.664062 44.191406 102.570312 44.191406 102.480469 L 44.191406 92.671875 C 44.191406 92.527344 44.171875 92.382812 44.257812 92.25 C 44.320312 92.363281 44.386719 92.484375 44.449219 92.597656 C 44.742188 93.1875 45.125 93.726562 45.589844 94.199219 C 46.164062 94.789062 46.894531 95.214844 47.695312 95.425781 C 47.742188 95.441406 47.789062 95.460938 47.839844 95.476562 C 47.867188 95.503906 47.902344 95.527344 47.941406 95.542969 C 47.988281 95.5625 48.023438 95.609375 48.019531 95.664062 C 48.019531 95.734375 48.019531 95.808594 48.019531 95.878906 C 48.019531 98.386719 48.019531 100.890625 48.019531 103.398438 C 48.019531 103.480469 48.019531 103.558594 48.011719 103.644531 C 48.011719 103.703125 47.957031 103.757812 47.898438 103.757812 C 47.898438 103.757812 47.898438 103.757812 47.890625 103.757812 C 47.789062 103.765625 47.6875 103.765625 47.585938 103.765625 L 47.335938 103.769531 L 47.207031 103.777344 L 46.960938 103.769531 C 46.152344 103.65625 45.355469 103.46875 44.578125 103.207031 C 44.386719 103.121094 44.183594 103.066406 43.996094 102.949219 Z M 43.996094 102.949219 "/>
<path style=" stroke:none;fill-rule:nonzero;fill:rgb(43.529412%,22.745098%,56.862745%);fill-opacity:1;" d="M 53.761719 92.238281 C 53.855469 92.320312 53.902344 92.441406 53.890625 92.566406 C 53.890625 92.628906 53.890625 92.6875 53.890625 92.753906 C 53.890625 96.054688 53.890625 99.347656 53.890625 102.648438 C 53.890625 102.792969 53.914062 102.9375 53.832031 103.066406 C 53.621094 103.171875 53.386719 103.210938 53.160156 103.273438 C 52.738281 103.386719 52.308594 103.46875 51.875 103.554688 C 51.804688 103.566406 51.730469 103.566406 51.664062 103.566406 C 51.816406 103.445312 51.859375 103.289062 51.851562 103.105469 C 51.847656 102.054688 51.851562 101.003906 51.851562 99.960938 L 51.851562 95.460938 C 51.851562 95.304688 51.863281 95.148438 51.726562 95.035156 C 51.851562 94.949219 51.984375 94.867188 52.109375 94.777344 C 52.691406 94.367188 53.101562 93.820312 53.394531 93.1875 C 53.476562 93 53.554688 92.8125 53.640625 92.621094 C 53.710938 92.574219 53.65625 92.484375 53.707031 92.429688 L 53.707031 92.4375 C 53.773438 92.386719 53.722656 92.296875 53.765625 92.242188 Z M 53.761719 92.238281 "/>
<path style=" stroke:none;fill-rule:nonzero;fill:rgb(41.568627%,20%,56.862745%);fill-opacity:1;" d="M 40.300781 92.6875 C 40.378906 92.753906 40.421875 92.855469 40.421875 92.964844 C 40.421875 93.035156 40.421875 93.109375 40.421875 93.179688 L 40.421875 100.183594 C 40.421875 100.234375 40.421875 100.285156 40.421875 100.339844 C 40.421875 100.414062 40.441406 100.519531 40.351562 100.554688 C 40.273438 100.585938 40.234375 100.480469 40.175781 100.453125 C 40.140625 100.433594 40.097656 100.421875 40.0625 100.414062 C 39.871094 100.289062 39.726562 100.117188 39.570312 99.953125 C 38.25 98.585938 37.246094 96.941406 36.636719 95.140625 C 36.613281 95.0625 36.605469 94.980469 36.539062 94.914062 C 36.539062 94.867188 36.527344 94.8125 36.511719 94.765625 C 36.484375 94.722656 36.496094 94.667969 36.535156 94.644531 C 36.539062 94.644531 36.539062 94.636719 36.546875 94.636719 C 36.589844 94.609375 36.636719 94.589844 36.679688 94.566406 C 37.800781 93.984375 38.914062 93.394531 40.039062 92.8125 C 40.09375 92.785156 40.152344 92.765625 40.207031 92.746094 C 40.242188 92.734375 40.277344 92.71875 40.300781 92.6875 Z M 40.300781 92.6875 "/>
<path style=" stroke:none;fill-rule:nonzero;fill:rgb(43.921569%,23.137255%,56.862745%);fill-opacity:1;" d="M 53.707031 92.4375 C 53.707031 92.507812 53.722656 92.585938 53.640625 92.628906 C 53.628906 92.554688 53.652344 92.484375 53.707031 92.4375 Z M 53.707031 92.4375 "/>
<path style=" stroke:none;fill-rule:nonzero;fill:rgb(43.921569%,23.137255%,56.862745%);fill-opacity:1;" d="M 53.761719 92.242188 C 53.765625 92.316406 53.785156 92.394531 53.699219 92.4375 C 53.699219 92.371094 53.699219 92.296875 53.761719 92.242188 Z M 53.761719 92.242188 "/>
<path style=" stroke:none;fill-rule:nonzero;fill:rgb(43.529412%,22.745098%,56.862745%);fill-opacity:1;" d="M 51.730469 95.035156 C 51.707031 95.074219 51.660156 95.105469 51.605469 95.101562 C 51.636719 95.058594 51.679688 95.035156 51.730469 95.035156 Z M 51.730469 95.035156 "/>
<path style=" stroke:none;fill-rule:nonzero;fill:rgb(42.352941%,20.784314%,56.862745%);fill-opacity:1;" d="M 40.300781 92.6875 C 40.285156 92.71875 40.246094 92.734375 40.210938 92.734375 C 40.222656 92.707031 40.261719 92.6875 40.300781 92.6875 Z M 40.300781 92.6875 "/>
<path style=" stroke:none;fill-rule:nonzero;fill:rgb(46.666667%,26.666667%,56.470588%);fill-opacity:1;" d="M 69.148438 68.347656 L 69.144531 68.339844 Z M 69.148438 68.347656 "/>
<path style=" stroke:none;fill-rule:nonzero;fill:rgb(46.666667%,26.666667%,56.470588%);fill-opacity:1;" d="M 70.699219 61.398438 C 70.699219 61.398438 77.695312 68.640625 70.570312 61.523438 C 70.566406 61.554688 70.542969 61.578125 70.511719 61.585938 L 70.511719 61.578125 C 70.285156 61.804688 70.054688 62.035156 69.828125 62.261719 C 69.796875 62.269531 69.773438 62.292969 69.769531 62.320312 C 69.738281 62.328125 69.714844 62.351562 69.707031 62.382812 "/>
<path style=" stroke:none;fill-rule:nonzero;fill:rgb(46.666667%,26.666667%,56.470588%);fill-opacity:1;" d="M 69.097656 62.988281 C 69.058594 63 69.035156 63.023438 69.023438 63.054688 C 69.007812 63.066406 68.988281 63.070312 68.96875 63.089844 C 68.261719 63.792969 67.558594 64.5 66.851562 65.203125 C 66.769531 65.28125 66.71875 65.386719 66.730469 65.503906 C 66.738281 65.5625 66.738281 65.628906 66.730469 65.6875 C 66.707031 65.867188 66.785156 65.992188 66.910156 66.121094 C 67.589844 66.792969 68.269531 67.46875 68.941406 68.148438 C 68.980469 68.191406 69.035156 68.226562 69.078125 68.269531 C 69.113281 68.273438 69.148438 68.296875 69.15625 68.335938 C 69.199219 68.375 69.234375 68.410156 69.277344 68.453125 C 69.304688 68.460938 69.328125 68.484375 69.335938 68.515625 C 69.367188 68.519531 69.390625 68.542969 69.394531 68.574219 C 69.425781 68.578125 69.449219 68.605469 69.457031 68.632812 C 69.484375 68.640625 69.511719 68.664062 69.515625 68.695312 C 69.546875 68.699219 69.570312 68.722656 69.574219 68.753906 C 69.605469 68.761719 69.628906 68.785156 69.636719 68.8125 C 69.664062 68.820312 69.691406 68.84375 69.695312 68.875 C 69.726562 68.878906 69.75 68.902344 69.757812 68.933594 C 69.785156 68.941406 69.808594 68.964844 69.816406 68.992188 C 69.847656 69 69.871094 69.023438 69.875 69.054688 C 69.90625 69.058594 69.929688 69.085938 69.9375 69.113281 C 69.964844 69.121094 69.988281 69.144531 69.996094 69.175781 C 70.027344 69.179688 70.050781 69.203125 70.054688 69.234375 C 70.085938 69.238281 70.109375 69.265625 70.117188 69.292969 C 70.144531 69.300781 70.171875 69.324219 70.175781 69.355469 C 70.207031 69.359375 70.230469 69.382812 70.234375 69.414062 C 70.265625 69.421875 70.289062 69.445312 70.296875 69.472656 C 70.324219 69.480469 70.351562 69.503906 70.355469 69.535156 C 70.386719 69.539062 70.410156 69.5625 70.414062 69.59375 C 70.445312 69.601562 70.46875 69.625 70.476562 69.652344 C 70.519531 69.695312 70.558594 69.738281 70.601562 69.78125 C 70.632812 69.785156 70.65625 69.808594 70.660156 69.839844 C 70.691406 69.847656 70.714844 69.871094 70.722656 69.898438 C 70.753906 69.90625 70.777344 69.929688 70.78125 69.960938 C 70.8125 69.964844 70.835938 69.984375 70.84375 70.015625 L 70.84375 70.03125 C 71.242188 70.480469 71.6875 70.890625 72.113281 71.320312 C 72.160156 71.375 72.234375 71.40625 72.304688 71.40625 C 72.378906 71.398438 72.449219 71.398438 72.523438 71.40625 C 72.714844 71.429688 72.847656 71.359375 72.984375 71.21875 C 73.585938 70.601562 74.195312 70.003906 74.808594 69.390625 C 74.855469 69.34375 74.902344 69.28125 74.945312 69.226562 C 75 69.179688 75.058594 69.136719 75.109375 69.089844 C 76.109375 68.089844 77.113281 67.085938 78.121094 66.078125 C 78.15625 66.042969 78.191406 66.007812 78.226562 65.96875 C 78.257812 65.941406 78.277344 65.902344 78.289062 65.867188 C 78.316406 65.707031 78.328125 65.542969 78.324219 65.375 C 78.3125 65.335938 78.292969 65.296875 78.265625 65.273438 C 78.214844 65.21875 78.160156 65.171875 78.113281 65.117188 C 77.140625 64.144531 76.164062 63.167969 75.191406 62.195312 C 75.125 62.128906 75.054688 62.074219 74.988281 62.011719 C 74.957031 61.96875 74.929688 61.925781 74.890625 61.890625 L 72.871094 59.867188 L 72.203125 59.867188 C 71.863281 60.210938 71.519531 60.546875 71.179688 60.886719 C 71.074219 60.988281 70.984375 61.097656 70.882812 61.199219 L 70.882812 61.21875 C 70.878906 61.246094 70.855469 61.265625 70.824219 61.273438 "/>
<path style=" stroke:none;fill-rule:nonzero;fill:rgb(46.666667%,26.666667%,56.470588%);fill-opacity:1;" d="M 69.335938 62.742188 C 69.304688 62.746094 69.28125 62.773438 69.277344 62.800781 C 69.246094 62.808594 69.222656 62.832031 69.214844 62.863281 "/>
<path style=" stroke:none;fill-rule:nonzero;fill:rgb(46.666667%,26.666667%,56.470588%);fill-opacity:1;" d="M 69.582031 62.503906 C 69.550781 62.507812 69.527344 62.53125 69.523438 62.5625 "/>
<path style=" stroke:none;fill-rule:nonzero;fill:rgb(46.666667%,26.666667%,56.470588%);fill-opacity:1;" d="M 70.570312 61.519531 C 70.566406 61.554688 70.542969 61.585938 70.507812 61.589844 C 70.507812 61.546875 70.535156 61.523438 70.570312 61.519531 Z M 70.570312 61.519531 "/>
<path style=" stroke:none;fill-rule:nonzero;fill:rgb(46.666667%,26.666667%,56.470588%);fill-opacity:1;" d="M 69.703125 68.898438 C 69.738281 68.902344 69.769531 68.929688 69.773438 68.964844 C 69.730469 68.957031 69.703125 68.933594 69.703125 68.898438 Z M 69.703125 68.898438 "/>
<path style=" stroke:none;fill-rule:nonzero;fill:rgb(46.666667%,26.666667%,56.470588%);fill-opacity:1;" d="M 70.632812 61.457031 C 70.625 61.492188 70.601562 61.523438 70.566406 61.53125 C 70.570312 61.488281 70.597656 61.457031 70.632812 61.457031 Z M 70.632812 61.457031 "/>
<path style=" stroke:none;fill-rule:nonzero;fill:rgb(53.72549%,36.862745%,56.078431%);fill-opacity:1;" d="M 117.109375 94.902344 C 117.101562 94.9375 117.078125 94.960938 117.046875 94.972656 C 117.046875 94.9375 117.070312 94.90625 117.109375 94.902344 Z M 117.109375 94.902344 "/>
<path style=" stroke:none;fill-rule:nonzero;fill:rgb(46.666667%,26.666667%,56.470588%);fill-opacity:1;" d="M 69.636719 68.839844 C 69.671875 68.84375 69.703125 68.867188 69.707031 68.902344 C 69.671875 68.898438 69.640625 68.875 69.636719 68.839844 Z M 69.636719 68.839844 "/>
<path style=" stroke:none;fill-rule:nonzero;fill:rgb(46.666667%,26.666667%,56.470588%);fill-opacity:1;" d="M 69.574219 68.773438 C 69.613281 68.777344 69.640625 68.800781 69.648438 68.839844 C 69.605469 68.839844 69.582031 68.808594 69.574219 68.773438 Z M 69.574219 68.773438 "/>
<path style=" stroke:none;fill-rule:nonzero;fill:rgb(46.666667%,26.666667%,56.470588%);fill-opacity:1;" d="M 70.691406 61.390625 C 70.6875 61.429688 70.660156 61.457031 70.625 61.464844 C 70.632812 61.429688 70.65625 61.398438 70.691406 61.390625 Z M 70.691406 61.390625 "/>
<path style=" stroke:none;fill-rule:nonzero;fill:rgb(46.666667%,26.666667%,56.470588%);fill-opacity:1;" d="M 70.757812 61.332031 C 70.753906 61.367188 70.726562 61.398438 70.691406 61.402344 C 70.691406 61.367188 70.722656 61.339844 70.757812 61.332031 Z M 70.757812 61.332031 "/>
<path style=" stroke:none;fill-rule:nonzero;fill:rgb(55.294118%,39.215686%,56.078431%);fill-opacity:1;" d="M 130.523438 100.789062 L 130.585938 100.859375 C 130.546875 100.847656 130.523438 100.816406 130.523438 100.789062 Z M 130.523438 100.789062 "/>
<path style=" stroke:none;fill-rule:nonzero;fill:rgb(46.666667%,26.666667%,56.470588%);fill-opacity:1;" d="M 70.816406 61.273438 C 70.8125 61.308594 70.789062 61.339844 70.753906 61.34375 C 70.753906 61.300781 70.78125 61.277344 70.816406 61.273438 Z M 70.816406 61.273438 "/>
<path style=" stroke:none;fill-rule:nonzero;fill:rgb(46.666667%,26.666667%,56.470588%);fill-opacity:1;" d="M 69.515625 68.710938 C 69.550781 68.71875 69.582031 68.742188 69.589844 68.777344 C 69.546875 68.777344 69.515625 68.746094 69.515625 68.710938 Z M 69.515625 68.710938 "/>
<path style=" stroke:none;fill-rule:nonzero;fill:rgb(46.666667%,26.666667%,56.470588%);fill-opacity:1;" d="M 69.449219 68.652344 C 69.484375 68.65625 69.515625 68.683594 69.523438 68.71875 C 69.484375 68.710938 69.457031 68.6875 69.449219 68.652344 Z M 69.449219 68.652344 "/>
<path style=" stroke:none;fill-rule:nonzero;fill:rgb(46.666667%,26.666667%,56.470588%);fill-opacity:1;" d="M 69.390625 68.585938 C 69.425781 68.59375 69.457031 68.617188 69.460938 68.652344 C 69.425781 68.652344 69.394531 68.621094 69.390625 68.585938 Z M 69.390625 68.585938 "/>
<path style=" stroke:none;fill-rule:nonzero;fill:rgb(46.666667%,26.666667%,56.470588%);fill-opacity:1;" d="M 70.878906 61.207031 C 70.871094 61.242188 70.847656 61.273438 70.8125 61.277344 C 70.816406 61.242188 70.84375 61.210938 70.878906 61.207031 Z M 70.878906 61.207031 "/>
<path style=" stroke:none;fill-rule:nonzero;fill:rgb(46.666667%,26.666667%,56.470588%);fill-opacity:1;" d="M 69.328125 68.527344 C 69.367188 68.53125 69.394531 68.554688 69.402344 68.59375 C 69.359375 68.59375 69.335938 68.5625 69.328125 68.527344 Z M 69.328125 68.527344 "/>
<path style=" stroke:none;fill-rule:nonzero;fill:rgb(46.666667%,26.666667%,56.470588%);fill-opacity:1;" d="M 69.265625 68.464844 C 69.300781 68.472656 69.328125 68.496094 69.335938 68.53125 C 69.300781 68.527344 69.269531 68.503906 69.265625 68.464844 Z M 69.265625 68.464844 "/>
<path style=" stroke:none;fill-rule:nonzero;fill:rgb(46.666667%,26.666667%,56.470588%);fill-opacity:1;" d="M 70.5 69.703125 C 70.535156 69.703125 70.566406 69.730469 70.566406 69.769531 C 70.535156 69.761719 70.507812 69.738281 70.5 69.703125 Z M 70.5 69.703125 "/>
<path style=" stroke:none;fill-rule:nonzero;fill:rgb(48.627451%,29.411765%,56.470588%);fill-opacity:1;" d="M 84.484375 74.269531 L 86.152344 74.269531 C 86.238281 74.269531 86.316406 74.269531 86.398438 74.273438 C 86.460938 74.269531 86.515625 74.316406 86.519531 74.382812 C 86.519531 74.382812 86.519531 74.386719 86.519531 74.386719 C 86.527344 74.488281 86.527344 74.59375 86.527344 74.695312 L 86.527344 102.425781 C 86.527344 102.539062 86.527344 102.652344 86.519531 102.769531 C 86.519531 102.835938 86.464844 102.882812 86.398438 102.882812 C 86.382812 102.882812 86.359375 102.882812 86.339844 102.882812 L 84.484375 102.875 C 84.484375 93.34375 84.484375 83.800781 84.484375 74.269531 Z M 84.484375 74.269531 "/>
<path style=" stroke:none;fill-rule:nonzero;fill:rgb(46.666667%,26.666667%,56.470588%);fill-opacity:1;" d="M 71.136719 74.269531 C 72.300781 74.269531 73.464844 74.269531 74.628906 74.269531 C 74.980469 74.269531 74.96875 74.261719 74.96875 74.605469 L 74.96875 102.433594 C 74.96875 102.535156 74.96875 102.636719 74.964844 102.742188 C 74.957031 102.859375 74.929688 102.882812 74.808594 102.886719 C 74.761719 102.886719 74.707031 102.886719 74.652344 102.886719 L 71.347656 102.886719 C 71.273438 102.886719 71.203125 102.882812 71.128906 102.875 C 71.136719 93.34375 71.136719 83.800781 71.136719 74.269531 Z M 71.136719 74.269531 "/>
<path style=" stroke:none;fill-rule:nonzero;fill:url(#linear0);" d="M 52.121094 108.214844 C 31.535156 107.777344 15.199219 90.730469 15.636719 70.140625 C 16.078125 49.554688 33.125 33.214844 53.710938 33.660156 C 73.828125 34.09375 89.980469 50.40625 90.203125 70.53125 L 95.292969 70.53125 C 95.039062 47.136719 75.871094 28.375 52.476562 28.625 C 35.628906 28.804688 20.488281 38.957031 13.921875 54.472656 C 4.804688 76.007812 14.875 100.847656 36.40625 109.960938 C 41.386719 112.066406 46.722656 113.203125 52.121094 113.304688 Z M 52.121094 108.214844 "/>
</g>
</svg>
